<svg width="24" height="25" viewBox="0 0 24 25" fill="none" xmlns="http://www.w3.org/2000/svg">
<path fill-rule="evenodd" clip-rule="evenodd" d="M20.7263 7.09999C21.5036 7.48952 22.1472 8.10201 22.5746 8.85916C23.002 9.61632 23.194 10.4837 23.1259 11.3506C23.0578 12.2174 22.7328 13.0442 22.1923 13.7253C21.6519 14.4064 20.9206 14.9109 20.092 15.1743C19.696 15.2915 19.2874 15.3605 18.8749 15.38C19.1944 15.6363 19.4821 15.9298 19.732 16.2543C20.0733 16.7189 20.3189 17.2468 20.4546 17.8071C20.5903 18.3675 20.6134 18.9492 20.5225 19.5185C20.4316 20.0878 20.2285 20.6334 19.9251 21.1237C19.6217 21.6139 19.2239 22.039 18.7549 22.3743C17.807 23.0592 16.6273 23.3426 15.4718 23.1628C14.3163 22.9831 13.2784 22.3548 12.5834 21.4143C12.3369 21.0788 12.1405 20.7092 12.0006 20.3171C11.8659 20.7082 11.6754 21.0778 11.4348 21.4143C11.0044 21.9974 10.4378 22.4663 9.78437 22.7801C9.13098 23.0938 8.41072 23.2428 7.68649 23.214C6.96225 23.1853 6.25607 22.9797 5.6296 22.6152C5.00313 22.2506 4.47542 21.7383 4.09256 21.1229C3.63579 20.3845 3.41018 19.5265 3.4447 18.6589C3.47921 17.7914 3.77229 16.954 4.28628 16.2543C4.53616 15.9298 4.82391 15.6363 5.14342 15.38C4.72515 15.3619 4.31066 15.2928 3.90913 15.1743C3.36096 14.9953 2.8534 14.7101 2.41545 14.335C1.97749 13.9599 1.61771 13.5021 1.35664 12.988C1.09558 12.4738 0.93834 11.9132 0.893912 11.3383C0.849484 10.7634 0.918733 10.1853 1.09771 9.63714C1.27668 9.08896 1.56187 8.5814 1.937 8.14345C2.31212 7.70549 2.76984 7.34571 3.28401 7.08464C3.79818 6.82358 4.35874 6.66634 4.93368 6.62191C5.50862 6.57749 6.08667 6.64673 6.63485 6.82571C7.03188 6.94324 7.40792 7.12258 7.74914 7.35714C7.56028 6.69873 7.52694 6.00545 7.65172 5.33195C7.7765 4.65846 8.05601 4.02315 8.46821 3.4761C8.88041 2.92905 9.41403 2.48521 10.027 2.17957C10.64 1.87393 11.3156 1.71484 12.0006 1.71484C12.6855 1.71484 13.3611 1.87393 13.9741 2.17957C14.5871 2.48521 15.1207 2.92905 15.5329 3.4761C15.9451 4.02315 16.2246 4.65846 16.3494 5.33195C16.4742 6.00545 16.4408 6.69873 16.252 7.35714C16.5943 7.1286 16.9703 6.95507 17.3663 6.84285C18.4761 6.47992 19.6846 6.57241 20.7263 7.09999ZM14.572 12.9457C14.572 14.3566 13.42 15.5 12.0006 15.5C10.5811 15.5 9.42914 14.3566 9.42914 12.9457C9.42914 11.5349 10.5811 10.3914 12.0006 10.3914C13.42 10.3914 14.572 11.5349 14.572 12.9457Z" fill="#D7E0FF"/>
<path d="M12.0011 15.4992C13.4205 15.4992 14.5725 14.3558 14.5725 12.9449C14.5725 11.5341 13.4205 10.3906 12.0011 10.3906C10.5817 10.3906 9.42969 11.5341 9.42969 12.9449C9.42969 14.3558 10.5817 15.4992 12.0011 15.4992Z" fill="white"/>
<path d="M12.0011 15.4992C13.4205 15.4992 14.5725 14.3558 14.5725 12.9449C14.5725 11.5341 13.4205 10.3906 12.0011 10.3906C10.5817 10.3906 9.42969 11.5341 9.42969 12.9449C9.42969 14.3558 10.5817 15.4992 12.0011 15.4992Z" stroke="#4147D5" stroke-linecap="round" stroke-linejoin="round"/>
<path d="M22.9206 9.65428C22.556 8.54552 21.7663 7.62673 20.725 7.09963C19.6836 6.57252 18.4757 6.48017 17.3663 6.84285C16.9703 6.95507 16.5943 7.1286 16.252 7.35714C16.4408 6.69873 16.4742 6.00545 16.3494 5.33195C16.2246 4.65846 15.9451 4.02315 15.5329 3.4761C15.1207 2.92905 14.5871 2.48521 13.9741 2.17957C13.3611 1.87393 12.6855 1.71484 12.0006 1.71484C11.3156 1.71484 10.64 1.87393 10.027 2.17957C9.41403 2.48521 8.88041 2.92905 8.46821 3.4761C8.05601 4.02315 7.7765 4.65846 7.65172 5.33195C7.52694 6.00545 7.56028 6.69873 7.74913 7.35714C7.40791 7.12258 7.03188 6.94324 6.63485 6.82571C6.08667 6.64673 5.50862 6.57748 4.93368 6.62191C4.35874 6.66634 3.79818 6.82358 3.28401 7.08464C2.76984 7.34571 2.31212 7.70549 1.937 8.14345C1.56187 8.5814 1.27668 9.08896 1.09771 9.63714C0.918733 10.1853 0.849484 10.7634 0.893912 11.3383C0.93834 11.9132 1.09558 12.4738 1.35664 12.988C1.61771 13.5021 1.97749 13.9599 2.41545 14.335C2.8534 14.7101 3.36096 14.9953 3.90913 15.1743C4.31066 15.2928 4.72515 15.3619 5.14342 15.38C4.82391 15.6363 4.53616 15.9298 4.28628 16.2543C3.94497 16.7189 3.69934 17.2468 3.56364 17.8071C3.42794 18.3675 3.40487 18.9492 3.49577 19.5185C3.58667 20.0878 3.78973 20.6334 4.09317 21.1237C4.39661 21.6139 4.79439 22.039 5.26342 22.3743C6.21123 23.0592 7.39097 23.3426 8.54646 23.1628C9.70195 22.9831 10.7399 22.3548 11.4348 21.4143C11.6754 21.0778 11.8659 20.7082 12.0006 20.3171C12.1411 20.7114 12.3354 21.0771 12.5834 21.4143C13.0139 21.9974 13.5805 22.4663 14.2339 22.7801C14.8873 23.0938 15.6075 23.2428 16.3318 23.214C17.056 23.1853 17.7622 22.9797 18.3887 22.6152C19.0151 22.2506 19.5428 21.7383 19.9257 21.1229C20.3825 20.3845 20.6081 19.5265 20.5736 18.6589C20.5391 17.7914 20.246 16.954 19.732 16.2543C19.4821 15.9298 19.1944 15.6363 18.8748 15.38C19.2874 15.3605 19.696 15.2915 20.092 15.1743C20.6413 14.9992 21.1505 14.7172 21.5903 14.3445C22.0302 13.9719 22.3919 13.5159 22.6549 13.0028C22.9178 12.4898 23.0766 11.9298 23.1222 11.3551C23.1678 10.7804 23.0993 10.2024 22.9206 9.65428Z" stroke="#4147D5" stroke-linecap="round" stroke-linejoin="round"/>
</svg>
